<mxfile host="app.diagrams.net" modified="2021-08-18T19:09:08.926Z" agent="5.0 (Windows NT 10.0; Win64; x64) AppleWebKit/537.36 (KHTML, like Gecko) Chrome/92.0.4515.131 Safari/537.36" etag="q7ev-2mbKj4G-Hgdj-s2" version="14.9.7" type="github">
  <diagram id="w0npDAH6z72HC8jlwonM" name="Page-1">
    <mxGraphModel dx="868" dy="482" grid="1" gridSize="10" guides="1" tooltips="1" connect="1" arrows="1" fold="1" page="1" pageScale="1" pageWidth="827" pageHeight="1169" math="0" shadow="0">
      <root>
        <mxCell id="0" />
        <mxCell id="1" parent="0" />
        <mxCell id="Ix53r0QzqGAZ9kxHplAQ-86" value="Articulo" style="swimlane;fontStyle=0;childLayout=stackLayout;horizontal=1;startSize=30;horizontalStack=0;resizeParent=1;resizeParentMax=0;resizeLast=0;collapsible=1;marginBottom=0;" vertex="1" parent="1">
          <mxGeometry x="40" y="40" width="180" height="264" as="geometry" />
        </mxCell>
        <mxCell id="Ix53r0QzqGAZ9kxHplAQ-87" value="Nombre" style="text;strokeColor=none;fillColor=none;align=left;verticalAlign=top;spacingLeft=4;spacingRight=4;overflow=hidden;rotatable=0;points=[[0,0.5],[1,0.5]];portConstraint=eastwest;" vertex="1" parent="Ix53r0QzqGAZ9kxHplAQ-86">
          <mxGeometry y="30" width="180" height="26" as="geometry" />
        </mxCell>
        <mxCell id="Ix53r0QzqGAZ9kxHplAQ-88" value="Descripción" style="text;strokeColor=none;fillColor=none;align=left;verticalAlign=top;spacingLeft=4;spacingRight=4;overflow=hidden;rotatable=0;points=[[0,0.5],[1,0.5]];portConstraint=eastwest;" vertex="1" parent="Ix53r0QzqGAZ9kxHplAQ-86">
          <mxGeometry y="56" width="180" height="26" as="geometry" />
        </mxCell>
        <mxCell id="Ix53r0QzqGAZ9kxHplAQ-89" value="Categoría a la que pertenece" style="text;strokeColor=none;fillColor=none;align=left;verticalAlign=top;spacingLeft=4;spacingRight=4;overflow=hidden;rotatable=0;points=[[0,0.5],[1,0.5]];portConstraint=eastwest;" vertex="1" parent="Ix53r0QzqGAZ9kxHplAQ-86">
          <mxGeometry y="82" width="180" height="26" as="geometry" />
        </mxCell>
        <mxCell id="Ix53r0QzqGAZ9kxHplAQ-90" value="Precio" style="text;strokeColor=none;fillColor=none;align=left;verticalAlign=top;spacingLeft=4;spacingRight=4;overflow=hidden;rotatable=0;points=[[0,0.5],[1,0.5]];portConstraint=eastwest;" vertex="1" parent="Ix53r0QzqGAZ9kxHplAQ-86">
          <mxGeometry y="108" width="180" height="26" as="geometry" />
        </mxCell>
        <mxCell id="Ix53r0QzqGAZ9kxHplAQ-91" value="Moneda (Pesos o Dólares)" style="text;strokeColor=none;fillColor=none;align=left;verticalAlign=top;spacingLeft=4;spacingRight=4;overflow=hidden;rotatable=0;points=[[0,0.5],[1,0.5]];portConstraint=eastwest;" vertex="1" parent="Ix53r0QzqGAZ9kxHplAQ-86">
          <mxGeometry y="134" width="180" height="26" as="geometry" />
        </mxCell>
        <mxCell id="Ix53r0QzqGAZ9kxHplAQ-92" value="Cantidad de comprados" style="text;strokeColor=none;fillColor=none;align=left;verticalAlign=top;spacingLeft=4;spacingRight=4;overflow=hidden;rotatable=0;points=[[0,0.5],[1,0.5]];portConstraint=eastwest;" vertex="1" parent="Ix53r0QzqGAZ9kxHplAQ-86">
          <mxGeometry y="160" width="180" height="26" as="geometry" />
        </mxCell>
        <mxCell id="Ix53r0QzqGAZ9kxHplAQ-93" value="Imágenes" style="text;strokeColor=none;fillColor=none;align=left;verticalAlign=top;spacingLeft=4;spacingRight=4;overflow=hidden;rotatable=0;points=[[0,0.5],[1,0.5]];portConstraint=eastwest;" vertex="1" parent="Ix53r0QzqGAZ9kxHplAQ-86">
          <mxGeometry y="186" width="180" height="26" as="geometry" />
        </mxCell>
        <mxCell id="Ix53r0QzqGAZ9kxHplAQ-94" value="Productos relacionados" style="text;strokeColor=none;fillColor=none;align=left;verticalAlign=top;spacingLeft=4;spacingRight=4;overflow=hidden;rotatable=0;points=[[0,0.5],[1,0.5]];portConstraint=eastwest;" vertex="1" parent="Ix53r0QzqGAZ9kxHplAQ-86">
          <mxGeometry y="212" width="180" height="26" as="geometry" />
        </mxCell>
        <mxCell id="Ix53r0QzqGAZ9kxHplAQ-95" value="Puntuación y comentarios" style="text;strokeColor=none;fillColor=none;align=left;verticalAlign=top;spacingLeft=4;spacingRight=4;overflow=hidden;rotatable=0;points=[[0,0.5],[1,0.5]];portConstraint=eastwest;" vertex="1" parent="Ix53r0QzqGAZ9kxHplAQ-86">
          <mxGeometry y="238" width="180" height="26" as="geometry" />
        </mxCell>
        <mxCell id="Ix53r0QzqGAZ9kxHplAQ-97" value="Listado de articulos" style="swimlane;fontStyle=0;childLayout=stackLayout;horizontal=1;startSize=26;horizontalStack=0;resizeParent=1;resizeParentMax=0;resizeLast=0;collapsible=1;marginBottom=0;" vertex="1" parent="1">
          <mxGeometry x="300" y="40" width="260" height="234" as="geometry" />
        </mxCell>
        <mxCell id="Ix53r0QzqGAZ9kxHplAQ-98" value="Listado de artículos en venta" style="text;strokeColor=none;fillColor=none;align=left;verticalAlign=top;spacingLeft=4;spacingRight=4;overflow=hidden;rotatable=0;points=[[0,0.5],[1,0.5]];portConstraint=eastwest;" vertex="1" parent="Ix53r0QzqGAZ9kxHplAQ-97">
          <mxGeometry y="26" width="260" height="26" as="geometry" />
        </mxCell>
        <mxCell id="Ix53r0QzqGAZ9kxHplAQ-99" value="filtro según rango de precio" style="text;strokeColor=none;fillColor=none;align=left;verticalAlign=top;spacingLeft=4;spacingRight=4;overflow=hidden;rotatable=0;points=[[0,0.5],[1,0.5]];portConstraint=eastwest;" vertex="1" parent="Ix53r0QzqGAZ9kxHplAQ-97">
          <mxGeometry y="52" width="260" height="26" as="geometry" />
        </mxCell>
        <mxCell id="Ix53r0QzqGAZ9kxHplAQ-100" value="Item 3" style="text;strokeColor=none;fillColor=none;align=left;verticalAlign=top;spacingLeft=4;spacingRight=4;overflow=hidden;rotatable=0;points=[[0,0.5],[1,0.5]];portConstraint=eastwest;" vertex="1" parent="Ix53r0QzqGAZ9kxHplAQ-97">
          <mxGeometry y="78" width="260" height="26" as="geometry" />
        </mxCell>
        <mxCell id="Ix53r0QzqGAZ9kxHplAQ-101" value="Listado de artículos en venta" style="text;strokeColor=none;fillColor=none;align=left;verticalAlign=top;spacingLeft=4;spacingRight=4;overflow=hidden;rotatable=0;points=[[0,0.5],[1,0.5]];portConstraint=eastwest;" vertex="1" parent="Ix53r0QzqGAZ9kxHplAQ-97">
          <mxGeometry y="104" width="260" height="26" as="geometry" />
        </mxCell>
        <mxCell id="Ix53r0QzqGAZ9kxHplAQ-102" value="Listado de artículos en venta" style="text;strokeColor=none;fillColor=none;align=left;verticalAlign=top;spacingLeft=4;spacingRight=4;overflow=hidden;rotatable=0;points=[[0,0.5],[1,0.5]];portConstraint=eastwest;" vertex="1" parent="Ix53r0QzqGAZ9kxHplAQ-97">
          <mxGeometry y="130" width="260" height="26" as="geometry" />
        </mxCell>
        <mxCell id="Ix53r0QzqGAZ9kxHplAQ-103" value="Listado de artículos en venta" style="text;strokeColor=none;fillColor=none;align=left;verticalAlign=top;spacingLeft=4;spacingRight=4;overflow=hidden;rotatable=0;points=[[0,0.5],[1,0.5]];portConstraint=eastwest;" vertex="1" parent="Ix53r0QzqGAZ9kxHplAQ-97">
          <mxGeometry y="156" width="260" height="26" as="geometry" />
        </mxCell>
        <mxCell id="Ix53r0QzqGAZ9kxHplAQ-104" value="Listado de artículos en venta" style="text;strokeColor=none;fillColor=none;align=left;verticalAlign=top;spacingLeft=4;spacingRight=4;overflow=hidden;rotatable=0;points=[[0,0.5],[1,0.5]];portConstraint=eastwest;" vertex="1" parent="Ix53r0QzqGAZ9kxHplAQ-97">
          <mxGeometry y="182" width="260" height="26" as="geometry" />
        </mxCell>
        <mxCell id="Ix53r0QzqGAZ9kxHplAQ-105" value="Listado de artículos en venta" style="text;strokeColor=none;fillColor=none;align=left;verticalAlign=top;spacingLeft=4;spacingRight=4;overflow=hidden;rotatable=0;points=[[0,0.5],[1,0.5]];portConstraint=eastwest;" vertex="1" parent="Ix53r0QzqGAZ9kxHplAQ-97">
          <mxGeometry y="208" width="260" height="26" as="geometry" />
        </mxCell>
      </root>
    </mxGraphModel>
  </diagram>
</mxfile>
